<svg xmlns="http://www.w3.org/2000/svg" viewBox="0 0 100 100" width="100" height="100">
  <!-- Background circle -->
  <circle cx="50" cy="50" r="45" fill="#007bff" />
  
  <!-- Room outline -->
  <rect x="25" y="30" width="50" height="40" fill="none" stroke="white" stroke-width="3" rx="2" />
  
  <!-- Door -->
  <rect x="40" y="50" width="20" height="20" fill="white" rx="1" />
  
  <!-- Window -->
  <rect x="30" y="35" width="15" height="10" fill="white" rx="1" />
  <rect x="55" y="35" width="15" height="10" fill="white" rx="1" />
  
  <!-- Calendar icon -->
  <rect x="65" y="60" width="20" height="20" fill="white" stroke="#007bff" stroke-width="2" rx="2" />
  <line x1="65" y1="65" x2="85" y2="65" stroke="#007bff" stroke-width="2" />
  <line x1="70" y1="60" x2="70" y2="62" stroke="white" stroke-width="2" />
  <line x1="80" y1="60" x2="80" y2="62" stroke="white" stroke-width="2" />
  <circle cx="70" cy="70" r="2" fill="#007bff" />
  <circle cx="75" cy="70" r="2" fill="#007bff" />
  <circle cx="80" cy="70" r="2" fill="#007bff" />
  <circle cx="70" cy="75" r="2" fill="#007bff" />
  <circle cx="75" cy="75" r="2" fill="#007bff" />
  <circle cx="80" cy="75" r="2" fill="#007bff" />
</svg>